<mxfile host="app.diagrams.net" modified="2020-11-04T17:04:41.739Z" agent="5.0 (Windows NT 10.0; Win64; x64) AppleWebKit/537.36 (KHTML, like Gecko) Chrome/85.0.4183.121 Safari/537.36 OPR/71.0.3770.310" etag="0PKzPzwjuAP40U_eAlGB" version="13.8.9-1" type="github" pages="2">
  <diagram name="Page-1" id="74e2e168-ea6b-b213-b513-2b3c1d86103e">
    <mxGraphModel dx="1461" dy="615" grid="1" gridSize="10" guides="1" tooltips="1" connect="1" arrows="1" fold="1" page="0" pageScale="1" pageWidth="1100" pageHeight="850" background="#114B5F" math="0" shadow="1">
      <root>
        <mxCell id="0" />
        <mxCell id="1" parent="0" />
        <mxCell id="2WOCBRSz_feOaMTDwl3g-3" style="edgeStyle=orthogonalEdgeStyle;curved=0;rounded=1;sketch=0;orthogonalLoop=1;jettySize=auto;html=1;entryX=0;entryY=0.5;entryDx=0;entryDy=0;strokeColor=#028090;fillColor=#F45B69;fontColor=#E4FDE1;" edge="1" parent="1" source="2WOCBRSz_feOaMTDwl3g-1" target="2WOCBRSz_feOaMTDwl3g-2">
          <mxGeometry relative="1" as="geometry" />
        </mxCell>
        <mxCell id="2WOCBRSz_feOaMTDwl3g-1" value="клиент" style="rounded=0;whiteSpace=wrap;html=1;fillColor=#F45B69;strokeColor=#028090;fontColor=#E4FDE1;" vertex="1" parent="1">
          <mxGeometry x="-40" y="80" width="200" height="120" as="geometry" />
        </mxCell>
        <mxCell id="2WOCBRSz_feOaMTDwl3g-5" style="edgeStyle=orthogonalEdgeStyle;curved=0;rounded=1;sketch=0;orthogonalLoop=1;jettySize=auto;html=1;entryX=0;entryY=0.5;entryDx=0;entryDy=0;entryPerimeter=0;strokeColor=#028090;fillColor=#F45B69;fontColor=#E4FDE1;" edge="1" parent="1" source="2WOCBRSz_feOaMTDwl3g-2" target="2WOCBRSz_feOaMTDwl3g-4">
          <mxGeometry relative="1" as="geometry" />
        </mxCell>
        <mxCell id="2WOCBRSz_feOaMTDwl3g-2" value="сервер" style="rounded=0;whiteSpace=wrap;html=1;sketch=0;strokeColor=#028090;fillColor=#F45B69;fontColor=#E4FDE1;" vertex="1" parent="1">
          <mxGeometry x="280" y="80" width="160" height="120" as="geometry" />
        </mxCell>
        <mxCell id="2WOCBRSz_feOaMTDwl3g-4" value="БД" style="shape=cylinder3;whiteSpace=wrap;html=1;boundedLbl=1;backgroundOutline=1;size=15;rounded=0;sketch=0;strokeColor=#028090;fillColor=#F45B69;fontColor=#E4FDE1;" vertex="1" parent="1">
          <mxGeometry x="560" y="80" width="90" height="120" as="geometry" />
        </mxCell>
      </root>
    </mxGraphModel>
  </diagram>
  <diagram id="Iqvlmcbx1GgRQlbT0hVx" name="Страница 2">
    <mxGraphModel dx="1061" dy="615" grid="1" gridSize="10" guides="1" tooltips="1" connect="1" arrows="1" fold="1" page="0" pageScale="1" pageWidth="827" pageHeight="1169" background="#114B5F" math="0" shadow="1">
      <root>
        <mxCell id="sTWCQaxvGg8yGcc3ThU--0" />
        <mxCell id="sTWCQaxvGg8yGcc3ThU--1" parent="sTWCQaxvGg8yGcc3ThU--0" />
        <mxCell id="-OMNX0GiAlzJCkdnMbo2-0" value="пользователь" style="html=1;rounded=0;sketch=0;strokeColor=#028090;fillColor=#F45B69;fontColor=#E4FDE1;" vertex="1" parent="sTWCQaxvGg8yGcc3ThU--1">
          <mxGeometry y="230" width="110" height="50" as="geometry" />
        </mxCell>
        <mxCell id="-OMNX0GiAlzJCkdnMbo2-1" value="теплица" style="html=1;rounded=0;sketch=0;strokeColor=#028090;fillColor=#F45B69;fontColor=#E4FDE1;" vertex="1" parent="sTWCQaxvGg8yGcc3ThU--1">
          <mxGeometry y="330" width="110" height="50" as="geometry" />
        </mxCell>
      </root>
    </mxGraphModel>
  </diagram>
</mxfile>
